<svg width="48" height="34" viewBox="0 0 48 34" fill="none" xmlns="http://www.w3.org/2000/svg">
<rect x="48" width="34" height="48" rx="17" transform="rotate(90 48 0)" fill="#F7F7F7"/>
<path d="M17.5 17C17.5 20.5899 20.4101 23.5 24 23.5C27.5899 23.5 30.5 20.5899 30.5 17C30.5 13.4101 27.5899 10.5 24 10.5C20.4101 10.5 17.5 13.4101 17.5 17Z" stroke="#313131" stroke-width="1.5" stroke-linecap="round" stroke-linejoin="round"/>
<path d="M16.86 24.14L16.99 24.01M31.01 24.01L31.14 24.14L31.01 24.01ZM16.86 9.86L16.99 9.99L16.86 9.86ZM33.92 17L34 17L33.92 17ZM14 17L14.08 17L14 17ZM24 7.08L24 7L24 7.08ZM24 27L24 26.92L24 27ZM31.01 9.99L31.14 9.86L31.01 9.99Z" stroke="#313131" stroke-width="2" stroke-linecap="round" stroke-linejoin="round"/>
</svg>
